<svg width="220" height="63" viewBox="0 0 220 63" fill="none" xmlns="http://www.w3.org/2000/svg">
<path d="M22.5789 0H34.5C51.8969 0 66 14.103 66 31.5C66 48.897 51.897 63 34.5 63H22.5789V0Z" fill="#007AFF"/>
<rect x="22.5789" y="20.4324" width="22.5789" height="22.1351" fill="white"/>
<rect y="20.4324" width="22.5789" height="22.1351" fill="#007AFF"/>
<path d="M83.9062 43.3906C78.7344 43.3906 75.3281 40.9531 75.0625 36.9062L75.0469 36.6719H78.9062L78.9375 36.8594C79.2344 38.7969 81.2188 40 84.0469 40C86.8906 40 88.6719 38.7344 88.6719 36.7969V36.7812C88.6719 35.0938 87.5 34.1875 84.5938 33.5781L82.1719 33.0781C77.7344 32.1562 75.5469 30.0938 75.5469 26.7344V26.7188C75.5625 22.75 79.0469 20.0625 83.9062 20.0625C88.8281 20.0625 92.0469 22.6562 92.2812 26.5156L92.2969 26.7812H88.4375L88.4062 26.5938C88.1406 24.625 86.4062 23.4531 83.875 23.4531C81.2344 23.4688 79.5938 24.7031 79.5938 26.5V26.5156C79.5938 28.1094 80.8281 29.0469 83.5469 29.6094L85.9844 30.1094C90.6719 31.0781 92.7188 32.9844 92.7188 36.5V36.5156C92.7188 40.7188 89.4062 43.3906 83.9062 43.3906ZM95.7531 43V20.4531H99.6437V29.2188H99.7375C100.597 27.2344 102.362 26.0938 104.847 26.0938C108.409 26.0938 110.691 28.6875 110.691 32.6875V43H106.8V33.4531C106.8 30.9062 105.519 29.375 103.284 29.375C101.081 29.375 99.6437 31.0469 99.6437 33.4531V43H95.7531ZM119.022 43.2812C115.709 43.2812 113.475 41.2344 113.475 38.2812V38.25C113.475 35.3125 115.756 33.5469 119.772 33.2969L124.1 33.0312V31.8906C124.1 30.2188 123.006 29.2031 121.037 29.2031C119.194 29.2031 118.069 30.0625 117.819 31.2812L117.787 31.4219H114.178L114.194 31.2344C114.428 28.2969 116.975 26.0938 121.178 26.0938C125.319 26.0938 127.991 28.2812 127.991 31.6094V43H124.1V40.4531H124.006C123.053 42.1875 121.209 43.2812 119.022 43.2812ZM117.35 38.125C117.35 39.4844 118.475 40.3125 120.178 40.3125C122.412 40.3125 124.1 38.8281 124.1 36.8594V35.6094L120.319 35.8438C118.397 35.9688 117.35 36.7969 117.35 38.1094V38.125ZM131.431 43V26.4375H135.322V29.2969H135.4C135.916 27.2969 137.291 26.0938 139.197 26.0938C139.681 26.0938 140.134 26.1719 140.431 26.25V29.7656C140.103 29.6406 139.509 29.5469 138.853 29.5469C136.65 29.5469 135.322 30.9375 135.322 33.3906V43H131.431ZM149.387 43.3281C144.419 43.3281 141.419 40.0312 141.419 34.7656V34.75C141.419 29.5312 144.466 26.0938 149.2 26.0938C153.934 26.0938 156.872 29.4219 156.872 34.4219V35.6719H145.278C145.341 38.5781 146.934 40.2969 149.466 40.2969C151.403 40.2969 152.669 39.2656 153.044 38.1562L153.075 38.0469H156.716L156.669 38.2188C156.153 40.7656 153.716 43.3281 149.387 43.3281ZM149.247 29.1406C147.184 29.1406 145.637 30.5312 145.325 33.0781H153.091C152.809 30.4531 151.309 29.1406 149.247 29.1406ZM163.406 43L157.359 20.4531H161.547L165.469 37.4688H165.547L170.062 20.4531H173.719L178.234 37.4688H178.312L182.234 20.4531H186.422L180.375 43H176.484L171.938 26.8281H171.844L167.297 43H163.406ZM191.722 43.2812C188.409 43.2812 186.175 41.2344 186.175 38.2812V38.25C186.175 35.3125 188.456 33.5469 192.472 33.2969L196.8 33.0312V31.8906C196.8 30.2188 195.706 29.2031 193.738 29.2031C191.894 29.2031 190.769 30.0625 190.519 31.2812L190.488 31.4219H186.878L186.894 31.2344C187.128 28.2969 189.675 26.0938 193.878 26.0938C198.019 26.0938 200.691 28.2812 200.691 31.6094V43H196.8V40.4531H196.706C195.753 42.1875 193.909 43.2812 191.722 43.2812ZM190.05 38.125C190.05 39.4844 191.175 40.3125 192.878 40.3125C195.113 40.3125 196.8 38.8281 196.8 36.8594V35.6094L193.019 35.8438C191.097 35.9688 190.05 36.7969 190.05 38.1094V38.125ZM206.288 48.5C205.538 48.5 204.756 48.4062 204.288 48.3281V45.3594C204.584 45.4219 205.038 45.5 205.584 45.5C207.069 45.5 207.897 45.0781 208.397 43.6875L208.631 43.0156L202.678 26.4375H206.928L210.803 39.6875H210.913L214.803 26.4375H218.897L212.944 43.5625C211.678 47.2031 209.741 48.5 206.288 48.5Z" fill="#007AFF"/>
</svg>
